PathFileType	4	(X/Y/Z)	28_2_86_p0_0-476.trc
DataRate	CameraRate	NumFrames	NumMarkers	Units	OrigDataRate	OrigDataStartFrame	OrigNumFrames
52.0	52.0	5	27	m	52.0	417	477
Frame#	Time	RHip			RKnee			RAnkle			RBigToe			RSmallToe			RHeel			LHip			LKnee			LAnkle			LBigToe			LSmallToe			LHeel			Neck			Head			Nose			RShoulder			RElbow			RWrist			RThumb			RIndex			RPinky			LShoulder			LElbow			LWrist			LThumb			LIndex			LPinky			
		X1	Y1	Z1	X2	Y2	Z2	X3	Y3	Z3	X4	Y4	Z4	X5	Y5	Z5	X6	Y6	Z6	X7	Y7	Z7	X8	Y8	Z8	X9	Y9	Z9	X10	Y10	Z10	X11	Y11	Z11	X12	Y12	Z12	X13	Y13	Z13	X14	Y14	Z14	X15	Y15	Z15	X16	Y16	Z16	X17	Y17	Z17	X18	Y18	Z18	X19	Y19	Z19	X20	Y20	Z20	X21	Y21	Z21	X22	Y22	Z22	X23	Y23	Z23	X24	Y24	Z24	X25	Y25	Z25	X26	Y26	Z26	X27	Y27	Z27	
417	8.01923076923077	0.22698372525522137	0.7035708010496372	1.0319664002071525	0.22490837633725727	0.8751343494531272	1.4158712576962453	0.2469118924313541	1.0486728187030425	1.7460082881940107	0.2392305928749983	0.9028698643448453	1.799335570814706	0.29516423404655995	0.9262002298316742	1.792701186487119	0.22764450944239925	1.1053665886377015	1.788959349759734	0.026539488579107037	0.6741505710720493	1.0334230979583834	0.0549264603170516	0.8265498119799666	1.4088275314814172	0.0746875109223056	0.9929594900800215	1.7517082364961096	0.05046811504890339	0.9127582701747798	1.8239065149015394	0.0007191452942933153	0.8978774851856808	1.7971328171873344	0.0796450681648352	1.1114146678803587	1.7918307767949124	0.08930111892469088	0.4958806351919232	0.5168169781637884	0.07814461457559038	0.3885835517496254	0.29737823497226373	0.071445575496205	0.34700807398086275	0.43611721076695925	0.23162570091721896	0.5190543593102857	0.5733671312221256	0.31078977315907896	0.5824231896090711	0.817521926575736	0.3886292326418943	0.5407888005710828	1.0407579789288828	0.39922058713029906	0.4884489412128529	1.123460325367627	0.4159691278736314	0.4880138992431051	1.1305572602387057	0.4049453175069414	0.5594073478517078	1.1433633931586948	-0.05755187417573649	0.5765851404847133	0.5757456033742733	-0.038768648813801654	0.48460798051179155	0.8157881902171701	0.08767246287255193	0.3798057865405749	0.9830240138506174	0.17423133149263748	0.34364048900839556	1.027775859463611	0.18031478095139472	0.3477017391686101	1.0379336489428879	0.12925812559046795	0.40427227383908787	1.057668651986405
418	8.038461538461538	0.22031657301999785	0.6829611800737256	1.011927161227301	0.2200321892404851	0.8573424369262128	1.406353981987321	0.2435827274180872	1.0663951210652491	1.7494809455843172	0.23799260647040227	0.9028228289522907	1.7999161286474656	0.2903438879405182	0.923247910667323	1.7966834345517273	0.2280670468622006	1.1051091881020159	1.7934066289546122	0.025746096276755226	0.6697390655750435	1.0214741884605427	0.05442387781682014	0.826304907015489	1.4005772875168838	0.07452390835254089	0.992777386530448	1.7520414847697356	0.054584590984457254	0.895732691297282	1.819540490236885	0.0017283102073283104	0.89578335352102	1.7929741371405188	0.0834554624586049	1.0918149496575975	1.788223940262795	0.08555314540024449	0.5091296953401642	0.5142036411891481	0.07073305541056575	0.3782461382534899	0.30380010094405413	0.06682406593878229	0.3359851665771165	0.4357099699957121	0.2233315616548268	0.5066102987947672	0.5759930041776207	0.31227390877475053	0.5646707664343477	0.8114976057537798	0.3943596381586135	0.5231774469418268	1.028589805643629	0.41651812219844914	0.4507352313163541	1.1041022484483782	0.42472829402232015	0.4563422696972801	1.1187209590614708	0.40726522330306525	0.5428066266392881	1.1318268399951816	-0.061576521576180474	0.5614177142381442	0.5705425745230598	-0.04263033598314196	0.49721107094978223	0.8138347005708729	0.07627095039282485	0.39857377224248985	0.968379304366817	0.16729211848409453	0.35340578212982143	1.0241710007304057	0.174957325515223	0.3453388906234366	1.034691653206545	0.11743310712939768	0.40139464375373596	1.0477740659539472
419	8.057692307692308	0.21312055019490808	0.6999896086528536	1.0277475433520467	0.21914135594266004	0.8539451434520962	1.4058913526592993	0.23960062551562122	1.0636601679392748	1.7450167910804961	0.23825572022512276	0.9042591635940603	1.8000612082892118	0.29046259839939936	0.9236777453491267	1.7965685756700358	0.22309342469002316	1.1058395360285922	1.793803036300528	0.025302304655913464	0.667470388080011	1.0243875506214326	0.05425914191330017	0.8259041848732106	1.4008970858762848	0.07439952602818026	0.9928162166144725	1.7520543299661917	0.04569819002444199	0.9111429694138308	1.8232084738583374	0.0017250707253714803	0.8958343532193589	1.7928145010422938	0.07541637314864005	1.0945098090349235	1.7890955185199615	0.08129668499304746	0.5200357432855598	0.5084146518507145	0.0674722656070569	0.3682110677680728	0.30693327399940595	0.0590152310937407	0.3472855365050388	0.43690470928343383	0.21922196502472582	0.5060502540810404	0.5761333492953896	0.3099641069493119	0.5777389457244867	0.8056915435392954	0.39970419974871274	0.5201866305810869	1.0208184734252834	0.4236352836942791	0.4463526303453099	1.0998651565862725	0.42669640525020713	0.4520832859869204	1.1115357003009578	0.41869877188227456	0.5400578533466485	1.1305501398319617	-0.06221563358781382	0.5612475695050279	0.566178353340515	-0.05082683442082947	0.508788191868839	0.8123284559371848	0.0720574315304151	0.409225683066778	0.9647481321237963	0.16682178485141605	0.35376050914507134	1.0236858026451843	0.171838062661316	0.35705133296585667	1.0342688132060371	0.1172399291376585	0.4016596790761035	1.0509060583587475
420	8.076923076923077	0.2223020146867435	0.687083960910572	1.0268859788694904	0.21563126185440298	0.8442928240579941	1.40580107027752	0.23964247460492893	1.0636990746400556	1.7453258924142425	0.23879498322475406	0.9235017798844161	1.8048533508517395	0.29704160758039405	0.9586468457437706	1.8040079500096828	0.22257927006634143	1.1000026501196405	1.7970656553360482	0.02650346915779587	0.6710028493266251	1.031830827102625	0.05103754237498933	0.8393520305774401	1.4029427184780519	0.07517542818354192	0.9908556201199304	1.7478176626503912	0.04290076360683107	0.8937860986280791	1.8163290574448434	-0.006122234855298691	0.8961271288243572	1.7930463340652762	0.0838501940489635	1.088169010298326	1.7840626586705448	0.08133904398306735	0.5191346598611705	0.5050126136879212	0.0674110189557957	0.36891174069789645	0.3069171653287784	0.05054720154315935	0.3429609721427616	0.42794382556357713	0.21907937740501968	0.5058805711615871	0.5761750689053723	0.312904888949583	0.5638811947331765	0.8066140953063499	0.3983025191632861	0.5144736096531053	1.0057855732295689	0.42702330420638535	0.4244720167353974	1.0843941026241333	0.43489167806261114	0.43095702004345077	1.0941288893330448	0.4253446341780251	0.5039141480382932	1.1068675491271354	-0.06898582811431478	0.5362797735515734	0.5673478694692099	-0.05980942465468876	0.5360406044355495	0.8101456082183969	0.061466176006501796	0.4129056042628151	0.9712989783928069	0.15634852366430663	0.3771889740559565	1.023372187058523	0.16337565417081892	0.35606561023910716	1.0343768724753677	0.1077111847420946	0.4003105695430548	1.0445044545039144
421	8.096153846153847	0.2167892477177103	0.6815008341271919	1.027411639192359	0.21605871401793197	0.8564176461716353	1.4061627402527883	0.2434091266044065	1.0664489958135	1.7497177941190414	0.24230365563953277	0.9345217123772809	1.8074984829069065	0.2965729561605439	0.9573857655037089	1.8041424611103676	0.22224904647818527	1.100555410560722	1.7926311961394334	0.019371637200211074	0.6697869448700681	1.0386756532790924	0.05115271359724812	0.839706042468549	1.4028517220890264	0.07439183701734413	0.9924218076933848	1.751818506381547	0.04687026215784595	0.8970020129487793	1.8204862282167014	-0.006122336836369134	0.8961141520097584	1.7930849765685972	0.08287500123121785	1.0886343264412215	1.787919364740809	0.07324533633202408	0.5314930715189062	0.5028833640448535	0.05186786270380571	0.3659399693881643	0.3087023531460305	0.043100513744040315	0.3428002254810819	0.4316974618656686	0.21192386940414154	0.5177485453389654	0.5744607685642836	0.3115092672673423	0.5602366613885708	0.7957015423494622	0.4116494633671303	0.5072000488446641	0.986238198564327	0.4477333685776093	0.40831846659071597	1.0650523062286044	0.45643525062128076	0.4366389678060148	1.074559133858499	0.43529089815870736	0.4813538282242107	1.0841106740442066	-0.07309118523219797	0.5344960614861292	0.5717856822784954	-0.07336189848977703	0.5640738495088913	0.8162731849250322	0.04554801153325056	0.4256019017153458	0.9719094993456532	0.14226137438440384	0.4149847811292214	1.0231880412172092	0.15079868189529752	0.38342693060830685	1.0345160476823423	0.08024629856003632	0.3835126399102641	1.0426706973281967
